<svg width="217" height="217" viewBox="0 0 217 217" fill="none" xmlns="http://www.w3.org/2000/svg">
<rect width="217" height="217" rx="35" fill="#1F272E"/>
<g clip-path="url(#clip0_920_6)">
<path d="M72.1334 44H99.326V144.528C99.326 152.299 96.2206 159.752 90.6931 165.247C85.1657 170.742 77.6688 173.829 69.8517 173.829H42.6592V73.301C42.6592 65.5299 45.7645 58.0771 51.292 52.5821C56.8195 47.0871 64.3164 44 72.1334 44V44Z" fill="#FF6B00" fill-opacity="0.92"/>
<path d="M147.451 44H174.343V144.441C174.343 152.235 171.228 159.71 165.684 165.221C160.14 170.733 152.621 173.829 144.781 173.829H117.676V73.6001C117.676 65.7497 120.813 58.2208 126.397 52.6697C131.981 47.1186 139.554 44 147.451 44V44Z" fill="white" fill-opacity="0.92"/>
</g>
<defs>
<clipPath id="clip0_920_6">
<rect width="131.684" height="129.829" fill="white" transform="translate(42.6592 44)"/>
</clipPath>
</defs>
</svg>
