<svg width="1002" height="142" viewBox="0 0 1002 142" fill="none" xmlns="http://www.w3.org/2000/svg">
<g clip-path="url(#clip0_67_144)">
<path d="M60.4639 0C43.9073 0 25.704 5.06157 15.459 15.1847C5.12251 25.2158 0 39.8483 0 58.8062V139.699H22.411V62.1193C22.411 48.407 25.7955 37.9158 32.5645 30.7375C39.3336 23.4673 48.6639 19.8782 60.4639 19.8782C72.264 19.8782 81.5028 23.4673 88.3633 30.7375C95.1324 38.0078 98.5169 48.499 98.5169 62.1193V139.699H120.928V58.8062C120.928 39.7563 115.805 25.2158 105.469 15.0927C95.2238 5.06157 77.1121 0 60.4639 0Z" fill="#1D1D1B"/>
<path d="M444.286 139.699V62.1192C444.286 48.407 447.671 37.9157 454.44 30.7375C461.209 23.4673 470.539 19.8782 482.339 19.8782C494.139 19.8782 503.378 23.4673 510.239 30.7375C517.008 38.0078 520.392 48.499 520.392 62.1192V139.699H542.803V58.8062C542.803 39.7563 537.681 25.2158 527.344 15.0927C517.099 5.06157 498.896 0 482.339 0C465.783 0 447.579 5.06157 437.334 15.1847C427.089 25.3078 421.875 39.8483 421.875 58.8982H443.006C443.006 39.8483 437.883 25.3078 427.547 15.1847C417.21 5.06157 399.098 0 382.45 0C365.894 0 347.69 5.06157 337.445 15.1847C327.2 25.3078 321.986 39.8483 321.986 58.8982V139.791H344.397V62.1192C344.397 48.407 347.782 37.9157 354.551 30.7375C361.32 23.4673 370.65 19.8782 382.45 19.8782C394.25 19.8782 403.489 23.4673 410.35 30.7375C417.119 38.0078 420.503 48.499 420.503 62.1192V139.699H444.195H444.286Z" fill="#1D1D1B"/>
<path d="M158.066 33.6825C163.737 23.0992 171.421 14.9087 181.3 9.01883C191.179 3.12901 202.156 0.276123 214.322 0.276123C226.488 0.276123 237.19 2.48481 242.77 4.41741C253.473 8.09855 258.504 11.5956 265.09 19.6021V2.48481H287.958V139.699H265.09V123.41C258.321 130.22 254.936 132.245 247.527 135.926C238.288 140.528 225.848 142 214.048 142C202.248 142 190.996 138.963 181.209 132.981C171.421 126.999 163.737 118.533 158.066 107.673C152.395 96.814 149.65 84.4822 149.65 70.5859C149.65 56.6896 152.486 44.2657 158.066 33.6825ZM258.87 43.8056C254.753 36.1672 249.082 30.2774 242.039 26.1361C234.995 22.0869 227.22 19.9702 218.804 19.9702C210.389 19.9702 202.613 21.9948 195.662 25.9521C188.71 30.0013 183.13 35.7991 179.013 43.4375C174.897 51.0759 172.793 60.1867 172.793 70.4939C172.793 80.8011 174.897 90.0959 179.013 97.9184C183.13 105.649 188.71 111.631 195.662 115.68C202.613 119.821 210.389 121.846 218.804 121.846C227.22 121.846 234.995 119.821 242.039 115.68C249.082 111.631 254.662 105.649 258.87 97.9184C262.986 90.188 265.09 81.0771 265.09 70.77C265.09 60.4628 262.986 51.444 258.87 43.7136V43.8056Z" fill="#1D1D1B"/>
<path d="M580.856 33.6825C586.528 23.0992 594.212 14.9087 604.091 9.01883C613.97 3.12901 624.947 0.276123 637.113 0.276123C649.279 0.276123 659.981 2.48481 665.561 4.41741C676.263 8.09855 681.294 11.5956 687.88 19.6021V2.48481H710.749V139.699H687.88V123.41C681.111 130.22 677.727 132.245 670.317 135.926C661.079 140.528 648.638 142 636.838 142C625.038 142 613.787 138.963 603.999 132.981C594.212 126.999 586.528 118.533 580.856 107.673C575.185 96.814 572.441 84.4822 572.441 70.5859C572.441 56.6896 575.277 44.2657 580.856 33.6825ZM681.66 43.8056C677.544 36.1672 671.873 30.2774 664.829 26.1361C657.786 22.0869 650.01 19.9702 641.595 19.9702C633.179 19.9702 625.404 21.9948 618.452 25.9521C611.5 30.0013 605.92 35.7991 601.804 43.4375C597.688 51.0759 595.584 60.1867 595.584 70.4939C595.584 80.8011 597.688 90.0959 601.804 97.9184C605.92 105.649 611.5 111.631 618.452 115.68C625.404 119.821 633.179 121.846 641.595 121.846C650.01 121.846 657.786 119.821 664.829 115.68C671.873 111.631 677.452 105.649 681.66 97.9184C685.776 90.188 687.88 81.0771 687.88 70.77C687.88 60.4628 685.776 51.444 681.66 43.7136V43.8056Z" fill="#1D1D1B"/>
<path d="M872.016 33.6825C877.687 23.0992 885.371 14.9087 895.25 9.01883C905.13 3.12901 916.106 0.276123 928.272 0.276123C940.438 0.276123 951.141 2.48481 956.72 4.41741C967.423 8.09855 972.454 11.5956 979.04 19.6021V2.48481H1001.91V139.699H979.04V123.41C972.271 130.22 968.886 132.245 961.477 135.926C952.238 140.528 939.798 142 927.998 142C916.198 142 904.947 138.963 895.159 132.981C885.371 126.999 877.687 118.533 872.016 107.673C866.345 96.814 863.601 84.4822 863.601 70.5859C863.601 56.6896 866.436 44.2657 872.016 33.6825ZM972.82 43.8056C968.704 36.1672 963.032 30.2774 955.989 26.1361C948.945 22.0869 941.17 19.9702 932.754 19.9702C924.339 19.9702 916.564 21.9948 909.612 25.9521C902.66 30.0013 897.08 35.7991 892.964 43.4375C888.847 51.0759 886.743 60.1867 886.743 70.4939C886.743 80.8011 888.847 90.0959 892.964 97.9184C897.08 105.649 902.66 111.631 909.612 115.68C916.564 119.821 924.339 121.846 932.754 121.846C941.17 121.846 948.945 119.821 955.989 115.68C963.032 111.631 968.612 105.649 972.82 97.9184C976.936 90.188 979.04 81.0771 979.04 70.77C979.04 60.4628 976.936 51.444 972.82 43.7136V43.8056Z" fill="#1D1D1B"/>
<path d="M815.303 139.699V121.754C815.12 101.692 798.838 85.5865 778.896 85.8626V139.699H750.265V0.276086H778.896V55.4932C799.569 55.1251 816.126 38.1918 816.126 17.3934V0.460143L843.568 0V32.7622C843.568 53.4686 822.712 70.3098 802.131 70.7699H798.746H802.314C822.438 70.3098 841.464 86.5988 841.464 106.937V139.699H815.303Z" fill="#E94E1B"/>
</g>
<defs>
<clipPath id="clip0_67_144">
<rect width="1002" height="142" fill="white"/>
</clipPath>
</defs>
</svg>
